<svg width="157.33" height="267.55" xmlns="http://www.w3.org/2000/svg">
 <defs>
  <style>.cls-1,.cls-2{fill:#1a1a1a;}.cls-2{font-size:44px;font-family:SegoeUI-Semilight, Segoe UI;}</style>
 </defs>
 <title>Hexlet_Logo-01</title>
 <g>
  <title>background</title>
  <rect fill="none" id="canvas_background" height="269.55" width="159.33" y="-1" x="-1"/>
 </g>
 <g>
  <title>Layer 1</title>
  <path id="svg_1" d="m139.44,267.38l-6.12,0a9,9 0 0 1 -9,-9l0,-75.12l-91.76,0l0,75.12a9,9 0 0 1 -9,9l-6,0a9,9 0 0 1 -9,-9l0,-173l24,16l0,62.25l91.75,0l0,-62.25l24.13,-16l0,173a9,9 0 0 1 -9,9z" class="cls-1"/>
  <polygon id="svg_2" points="1 44.88 78.5 89.76 156 44.88 78.5 0 1 44.88" class="cls-1"/>
 </g>
</svg>