<?xml version="1.0" encoding="utf-8"?><svg viewBox="0 0 157.33 267.55" xmlns="http://www.w3.org/2000/svg" xmlns:xlink="http://www.w3.org/1999/xlink"><style>:root>svg{display:none}:root>svg:target{display:block}</style><svg viewBox="0 0 16 16" class="abi abi-chat" fill="currentColor" id="chat" xmlns="http://www.w3.org/2000/svg"><path fill-rule="evenodd" d="M2.678 11.894a1 1 0 01.287.801 10.97 10.97 0 01-.398 2c1.395-.323 2.247-.697 2.634-.893a1 1 0 01.71-.074A8.06 8.06 0 008 14c3.996 0 7-2.807 7-6 0-3.192-3.004-6-7-6S1 4.808 1 8c0 1.468.617 2.83 1.678 3.894zm-.493 3.905a21.682 21.682 0 01-.713.129c-.2.032-.352-.176-.273-.362a9.68 9.68 0 00.244-.637l.003-.01c.248-.72.45-1.548.524-2.319C.743 11.37 0 9.76 0 8c0-3.866 3.582-7 8-7s8 3.134 8 7-3.582 7-8 7a9.06 9.06 0 01-2.347-.306c-.52.263-1.639.742-3.468 1.105z"/></svg><svg viewBox="0 0 16 16" class="bbi bbi-chat-left-text" fill="currentColor" id="chat-left-text" xmlns="http://www.w3.org/2000/svg"><path fill-rule="evenodd" d="M14 1H2a1 1 0 00-1 1v11.586l2-2A2 2 0 014.414 11H14a1 1 0 001-1V2a1 1 0 00-1-1zM2 0a2 2 0 00-2 2v12.793a.5.5 0 00.854.353l2.853-2.853A1 1 0 014.414 12H14a2 2 0 002-2V2a2 2 0 00-2-2H2z"/><path fill-rule="evenodd" d="M3 3.5a.5.5 0 01.5-.5h9a.5.5 0 010 1h-9a.5.5 0 01-.5-.5zM3 6a.5.5 0 01.5-.5h9a.5.5 0 010 1h-9A.5.5 0 013 6zm0 2.5a.5.5 0 01.5-.5h5a.5.5 0 010 1h-5a.5.5 0 01-.5-.5z"/></svg><svg viewBox="0 0 16 16" class="cbi cbi-circle-fill" fill="currentColor" id="circle-fill" xmlns="http://www.w3.org/2000/svg"><circle cx="8" cy="8" r="8"/></svg><svg viewBox="0 0 16 16" class="dbi dbi-cursor" fill="currentColor" id="cursor" xmlns="http://www.w3.org/2000/svg"><path fill-rule="evenodd" d="M14.082 2.182a.5.5 0 01.103.557L8.528 15.467a.5.5 0 01-.917-.007L5.57 10.694.803 8.652a.5.5 0 01-.006-.916l12.728-5.657a.5.5 0 01.556.103zM2.25 8.184l3.897 1.67a.5.5 0 01.262.263l1.67 3.897L12.743 3.52 2.25 8.184z"/></svg><svg viewBox="0 0 16 16" class="ebi ebi-envelope" fill="currentColor" id="envelope" xmlns="http://www.w3.org/2000/svg"><path fill-rule="evenodd" d="M0 4a2 2 0 012-2h12a2 2 0 012 2v8a2 2 0 01-2 2H2a2 2 0 01-2-2V4zm2-1a1 1 0 00-1 1v.217l7 4.2 7-4.2V4a1 1 0 00-1-1H2zm13 2.383l-4.758 2.855L15 11.114v-5.73zm-.034 6.878L9.271 8.82 8 9.583 6.728 8.82l-5.694 3.44A1 1 0 002 13h12a1 1 0 00.966-.739zM1 11.114l4.758-2.876L1 5.383v5.73z"/></svg><svg viewBox="0 0 16 16" class="fbi fbi-globe" fill="currentColor" id="globe" xmlns="http://www.w3.org/2000/svg"><path fill-rule="evenodd" d="M0 8a8 8 0 1116 0A8 8 0 010 8zm7.5-6.923c-.67.204-1.335.82-1.887 1.855A7.97 7.97 0 005.145 4H7.5V1.077zM4.09 4H2.255a7.025 7.025 0 013.072-2.472 6.7 6.7 0 00-.597.933c-.247.464-.462.98-.64 1.539zm-.582 3.5h-2.49c.062-.89.291-1.733.656-2.5H3.82a13.652 13.652 0 00-.312 2.5zM4.847 5H7.5v2.5H4.51A12.5 12.5 0 014.846 5zM8.5 5v2.5h2.99a12.495 12.495 0 00-.337-2.5H8.5zM4.51 8.5H7.5V11H4.847a12.5 12.5 0 01-.338-2.5zm3.99 0V11h2.653c.187-.765.306-1.608.338-2.5H8.5zM5.145 12H7.5v2.923c-.67-.204-1.335-.82-1.887-1.855A7.97 7.97 0 015.145 12zm.182 2.472a6.696 6.696 0 01-.597-.933A9.268 9.268 0 014.09 12H2.255a7.024 7.024 0 003.072 2.472zM3.82 11H1.674a6.958 6.958 0 01-.656-2.5h2.49c.03.877.138 1.718.312 2.5zm6.853 3.472A7.024 7.024 0 0013.745 12H11.91a9.27 9.27 0 01-.64 1.539 6.688 6.688 0 01-.597.933zM8.5 12h2.355a7.967 7.967 0 01-.468 1.068c-.552 1.035-1.218 1.65-1.887 1.855V12zm3.68-1h2.146c.365-.767.594-1.61.656-2.5h-2.49a13.65 13.65 0 01-.312 2.5zm2.802-3.5h-2.49A13.65 13.65 0 0012.18 5h2.146c.365.767.594 1.61.656 2.5zM11.27 2.461c.247.464.462.98.64 1.539h1.835a7.024 7.024 0 00-3.072-2.472c.218.284.418.598.597.933zM10.855 4H8.5V1.077c.67.204 1.335.82 1.887 1.855.173.324.33.682.468 1.068z"/></svg><svg viewBox="0 0 157.33 267.55" id="logo" xmlns="http://www.w3.org/2000/svg"><defs><style>.gcls-1{fill:#1a1a1a}</style></defs><path fill="none" id="gcanvas_background" d="M-1-1h159.33v269.55H-1z"/><g><path id="gsvg_1" d="M139.44 267.38h-6.12a9 9 0 01-9-9v-75.12H32.56v75.12a9 9 0 01-9 9h-6a9 9 0 01-9-9v-173l24 16v62.25h91.75v-62.25l24.13-16v173a9 9 0 01-9 9z" class="gcls-1"/><path id="gsvg_2" class="gcls-1" d="M1 44.88l77.5 44.88L156 44.88 78.5 0 1 44.88z"/></g></svg><svg viewBox="0 0 16 16" class="hbi hbi-people" fill="currentColor" id="people" xmlns="http://www.w3.org/2000/svg"><path fill-rule="evenodd" d="M15 14s1 0 1-1-1-4-5-4-5 3-5 4 1 1 1 1h8zm-7.978-1h7.956a.274.274 0 00.014-.002l.008-.002c-.002-.264-.167-1.03-.76-1.72C13.688 10.629 12.718 10 11 10c-1.717 0-2.687.63-3.24 1.276-.593.69-.759 1.457-.76 1.72a1.05 1.05 0 00.022.004zM11 7a2 2 0 100-4 2 2 0 000 4zm3-2a3 3 0 11-6 0 3 3 0 016 0zM6.936 9.28a5.88 5.88 0 00-1.23-.247A7.35 7.35 0 005 9c-4 0-5 3-5 4 0 .667.333 1 1 1h4.216A2.238 2.238 0 015 13c0-1.01.377-2.042 1.09-2.904.243-.294.526-.569.846-.816zM4.92 10c-1.668.02-2.615.64-3.16 1.276C1.163 11.97 1 12.739 1 13h3c0-1.045.323-2.086.92-3zM1.5 5.5a3 3 0 116 0 3 3 0 01-6 0zm3-2a2 2 0 100 4 2 2 0 000-4z"/></svg><svg viewBox="0 0 16 16" class="ibi ibi-person" fill="currentColor" id="person" xmlns="http://www.w3.org/2000/svg"><path fill-rule="evenodd" d="M10 5a2 2 0 11-4 0 2 2 0 014 0zM8 8a3 3 0 100-6 3 3 0 000 6zm6 5c0 1-1 1-1 1H3s-1 0-1-1 1-4 6-4 6 3 6 4zm-1-.004c-.001-.246-.154-.986-.832-1.664C11.516 10.68 10.289 10 8 10c-2.29 0-3.516.68-4.168 1.332-.678.678-.83 1.418-.832 1.664h10z"/></svg><svg viewBox="0 0 16 16" class="jbi jbi-telephone" fill="currentColor" id="telephone" xmlns="http://www.w3.org/2000/svg"><path fill-rule="evenodd" d="M3.654 1.328a.678.678 0 00-1.015-.063L1.605 2.3c-.483.484-.661 1.169-.45 1.77a17.568 17.568 0 004.168 6.608 17.569 17.569 0 006.608 4.168c.601.211 1.286.033 1.77-.45l1.034-1.034a.678.678 0 00-.063-1.015l-2.307-1.794a.678.678 0 00-.58-.122l-2.19.547a1.745 1.745 0 01-1.657-.459L5.482 8.062a1.745 1.745 0 01-.46-1.657l.548-2.19a.678.678 0 00-.122-.58L3.654 1.328zM1.884.511a1.745 1.745 0 012.612.163L6.29 2.98c.329.423.445.974.315 1.494l-.547 2.19a.678.678 0 00.178.643l2.457 2.457a.678.678 0 00.644.178l2.189-.547a1.745 1.745 0 011.494.315l2.306 1.794c.829.645.905 1.87.163 2.611l-1.034 1.034c-.74.74-1.846 1.065-2.877.702a18.634 18.634 0 01-7.01-4.42 18.634 18.634 0 01-4.42-7.009c-.362-1.03-.037-2.137.703-2.877L1.885.511z"/></svg></svg>